# xmcd CD database file
#
# Track frame offsets:
#	182
#	7625
#	21540
#	32670
#	44297
#	53067
#	64970
#	76090
#	86255
#	96522
#	108182
#	117797
#	127397
#	137245
#
# Disc length: 1976 seconds
#
# Revision: 0
# Processed by: cddbd v1.5.2PL0 Copyright (c) Steve Scherf et al.
# Submitted via: CDex 1.51
#
DISCID=b307b60e
DTITLE=Various Artist - Harlem Holiday New York R&B Vol6
DYEAR=1993
DGENRE=Blues
TTITLE0=Maurice Willams and the Zodiacs-Stay
TTITLE1=Nutmegs-Ship Of Love
TTITLE2=Five Willows-Look Me In The Eyes
TTITLE3=Five Satins-Shadows
TTITLE4=Sonnets-Why Should We Break Up
TTITLE5=Turbans-Sister Sookey
TTITLE6=Smart Tones-Ginny
TTITLE7=Five Satins-Wonderful Girl
TTITLE8=Skylarks-Fountain Of Love
TTITLE9=Desires-Bobby You
TTITLE10=Loungers-Remember The Night
TTITLE11=Five Debonaires-Darlin'
TTITLE12=Vocalaires-Dance Dance
TTITLE13=Roger And The Travelers-Your Dady's Little Girl
EXTD=YEAR: 1993
EXTT0=
EXTT1=
EXTT2=
EXTT3=
EXTT4=
EXTT5=
EXTT6=
EXTT7=
EXTT8=
EXTT9=
EXTT10=
EXTT11=
EXTT12=
EXTT13=
PLAYORDER=
